<svg xmlns="http://www.w3.org/2000/svg" xmlns:xlink="http://www.w3.org/1999/xlink" width="1989.835" height="1065.966" viewBox="0 0 1989.835 1065.966">
  <defs>
    <linearGradient id="linear-gradient" y1="0.397" x2="0.988" y2="0.408" gradientUnits="objectBoundingBox">
      <stop offset="0" stop-color="#ffc371" stop-opacity="0.91"/>
      <stop offset="1" stop-color="#ff5f6d" stop-opacity="0.89"/>
    </linearGradient>
  </defs>
  <g id="Groupe_1220" data-name="Groupe 1220" transform="translate(45.363 23.548)">
    <path id="Tracé_199" data-name="Tracé 199" d="M2687.157,976.42s89.812,20.742,120.432,25.252,80.228,8.814,111.776,10.4,118.847,2.023,158.543,0,82.131-6.055,118.906-10.4,107.764-14.782,154.14-25.252,130.468-45.12,173.956-60.16c33.356-11.536,121.509-38.643,185.509-59.236,17.52-5.637,34.151-11.1,46.16-15.293,51.538-17.979,168.23-42.3,208.968-52.139s141.861-29.635,196.087-36.691,198.951-30.9,277.671-46.345,203.112-42.82,203.112-42.82V-.783H2665.933Z" transform="translate(-2711.296 -19.159)" fill="rgba(255,195,113,0.37)"/>
    <path id="Tracé_200" data-name="Tracé 200" d="M2670,829.682l137.688-27.614c34.422-6.9,120.014-8.473,160.019-11.3s110.244,4.707,146.992,6.276,108.17,15.514,144.228,20.685,156.065,43.449,208.088,57.932,125.514,52.918,167.351,70.558,147.808,45.677,197.078,60.9,142.209,35.88,192.674,44.563,134.335,9.485,183.866,5.942,66.374-5.48,94.479-10.795,52.438-10.345,77.527-17.731c.031-.008,22.418-6.938,23.951-7.386,13.231-4.155,37.674-12.513,47.085-15.34,29.683-10.662,55.5-19.561,77.869-29.385,28.1-12.341,99.57-44.026,99.57-44.026L4625.258,0H2670Z" transform="translate(-2694.139 -17.184)" fill="rgba(255,89,92,0.26)"/>
    <path id="Tracé_201" data-name="Tracé 201" d="M4628.328,843.084s-100.782,52.294-137.916,69.873-89.9,37.356-119.871,47.464-90.556,31.642-147.884,43.069-147.885,18.019-189.58,18.458-113.979-6.739-151.138-10.267-463.676-74.732-629.2-108.423-233.511-23.834-316.315-14.123S2669.772,933.7,2669.772,933.7l3.044-935.5H4628.328Z" transform="translate(-2695.098 -21.741)" fill="rgba(248,145,82,0.26)"/>
    <path id="Tracé_202" data-name="Tracé 202" d="M2773.536,812.54s81.139,15.651,103.324,20,105.017,25.138,142.282,36.565,156.868,50.536,207.679,69.123,142.014,47.348,191.793,60.828,131.491,28.882,178.912,33.794,157.475,9.657,211.863,4.83,124.21-19.642,177.447-29.934,150.317-39.585,200.414-56.964,115.164-40.28,161.7-59.865,164.6-71.449,164.6-71.449,89.342-45.572,113.531-65.655.972-754.082.972-754.082l-1958,.966-.4,792.028Z" transform="translate(-2693.62 -16.593)" fill="url(#linear-gradient)"/>
  </g>
</svg>
