<?xml version="1.0" encoding="UTF-8" standalone="no"?>
<!-- Created with Inkscape (http://www.inkscape.org/) -->

<svg
   xmlns:dc="http://purl.org/dc/elements/1.1/"
   xmlns:cc="http://creativecommons.org/ns#"
   xmlns:rdf="http://www.w3.org/1999/02/22-rdf-syntax-ns#"
   xmlns:svg="http://www.w3.org/2000/svg"
   xmlns="http://www.w3.org/2000/svg"
   xmlns:sodipodi="http://sodipodi.sourceforge.net/DTD/sodipodi-0.dtd"
   xmlns:inkscape="http://www.inkscape.org/namespaces/inkscape"
   width="210mm"
   height="297mm"
   viewBox="0 0 744.09448819 1052.3622047"
   id="svg2"
   version="1.1"
   inkscape:version="0.91 r13725"
   inkscape:export-filename="C:\Users\Admin\Desktop\eigenes\flame.png"
   inkscape:export-xdpi="157.69647"
   inkscape:export-ydpi="157.69647"
   sodipodi:docname="flame.svg">
  <defs
     id="defs4">
    <inkscape:path-effect
       fuse_tolerance="0"
       vertical_pattern="false"
       prop_units="false"
       tang_offset="0"
       normal_offset="0"
       spacing="0"
       scale_y_rel="false"
       prop_scale="1"
       copytype="single_stretched"
       pattern="m 378.96301,261.44353 c 39.06302,0 82.86517,40.02186 82.86517,40.02186 0,0 -43.80215,40.02187 -82.86517,40.02187 -39.06302,0 -82.86517,-40.02187 -82.86517,-40.02187 0,0 43.80215,-40.02186 82.86517,-40.02186 z"
       is_visible="true"
       id="path-effect4336"
       effect="skeletal" />
    <inkscape:path-effect
       is_visible="true"
       id="path-effect4334"
       effect="spiro" />
    <inkscape:path-effect
       fuse_tolerance="0"
       vertical_pattern="false"
       prop_units="false"
       tang_offset="0"
       normal_offset="0"
       spacing="0"
       scale_y_rel="false"
       prop_scale="1"
       copytype="single_stretched"
       pattern="m 255.11302,240.38479 c 39.06302,0 82.86517,40.02186 82.86517,40.02186 0,0 -43.80215,40.02187 -82.86517,40.02187 -39.06302,0 -82.86517,-40.02187 -82.86517,-40.02187 0,0 43.80215,-40.02186 82.86517,-40.02186 z"
       is_visible="true"
       id="path-effect4330"
       effect="skeletal" />
    <inkscape:path-effect
       is_visible="true"
       id="path-effect4328"
       effect="spiro" />
    <inkscape:path-effect
       effect="skeletal"
       id="path-effect4319"
       is_visible="true"
       pattern="m 356.89126,149.07827 c 39.06302,0 82.86517,40.02186 82.86517,40.02186 0,0 -43.80215,40.02187 -82.86517,40.02187 -39.06302,0 -82.86517,-40.02187 -82.86517,-40.02187 0,0 43.80215,-40.02186 82.86517,-40.02186 z"
       copytype="single_stretched"
       prop_scale="1"
       scale_y_rel="false"
       spacing="0"
       normal_offset="0"
       tang_offset="0"
       prop_units="false"
       vertical_pattern="false"
       fuse_tolerance="0" />
    <inkscape:path-effect
       effect="spiro"
       id="path-effect4317"
       is_visible="true" />
  </defs>
  <sodipodi:namedview
     id="base"
     pagecolor="#ffffff"
     bordercolor="#666666"
     borderopacity="1.0"
     inkscape:pageopacity="0.0"
     inkscape:pageshadow="2"
     inkscape:zoom="0.49837466"
     inkscape:cx="685.19746"
     inkscape:cy="432.29291"
     inkscape:document-units="px"
     inkscape:current-layer="layer1"
     showgrid="false"
     inkscape:window-width="1366"
     inkscape:window-height="706"
     inkscape:window-x="-8"
     inkscape:window-y="-8"
     inkscape:window-maximized="1" />
  <metadata
     id="metadata7">
    <rdf:RDF>
      <cc:Work
         rdf:about="">
        <dc:format>image/svg+xml</dc:format>
        <dc:type
           rdf:resource="http://purl.org/dc/dcmitype/StillImage" />
        <dc:title></dc:title>
      </cc:Work>
    </rdf:RDF>
  </metadata>
  <g
     inkscape:label="Ebene 1"
     inkscape:groupmode="layer"
     id="layer1">
    <rect
       style="color:#000000;clip-rule:nonzero;display:inline;overflow:visible;visibility:visible;opacity:0.93000034;isolation:auto;mix-blend-mode:normal;color-interpolation:sRGB;color-interpolation-filters:linearRGB;solid-color:#000000;solid-opacity:1;fill:#27494e;fill-opacity:0;fill-rule:evenodd;stroke:none;stroke-width:3;stroke-linecap:round;stroke-linejoin:round;stroke-miterlimit:4;stroke-dasharray:none;stroke-dashoffset:0;stroke-opacity:1;color-rendering:auto;image-rendering:auto;shape-rendering:auto;text-rendering:auto;enable-background:accumulate"
       id="rect4136"
       width="174"
       height="174"
       x="272"
       y="429.36221" />
    <rect
       style="opacity:1;fill:#800000;fill-opacity:0;fill-rule:nonzero;stroke:none;stroke-width:3;stroke-linecap:round;stroke-linejoin:round;stroke-miterlimit:4;stroke-dasharray:none;stroke-dashoffset:0;stroke-opacity:1"
       id="rect4138"
       width="199"
       height="199"
       x="197"
       y="403.36221" />
    <rect
       style="opacity:1;fill:#004a00;fill-opacity:0;fill-rule:nonzero;stroke:none;stroke-width:3;stroke-linecap:round;stroke-linejoin:round;stroke-miterlimit:4;stroke-dasharray:none;stroke-dashoffset:0;stroke-opacity:1"
       id="rect4140"
       width="230"
       height="230"
       x="188"
       y="413.36221" />
    <rect
       style="opacity:1;fill:#ff2a2a;fill-opacity:0;fill-rule:nonzero;stroke:none;stroke-width:3;stroke-linecap:round;stroke-linejoin:round;stroke-miterlimit:4;stroke-dasharray:none;stroke-dashoffset:0;stroke-opacity:1"
       id="rect4150"
       width="68"
       height="65"
       x="395"
       y="560.36218" />
    <rect
       style="opacity:1;fill:#ff2a2a;fill-opacity:0;fill-rule:nonzero;stroke:none;stroke-width:3;stroke-linecap:round;stroke-linejoin:round;stroke-miterlimit:4;stroke-dasharray:none;stroke-dashoffset:0;stroke-opacity:1"
       id="rect4152"
       width="152"
       height="135"
       x="363"
       y="552.36218" />
    <path
       style="fill:#ff2a2a;fill-rule:evenodd;stroke:none;stroke-width:1px;stroke-linecap:butt;stroke-linejoin:miter;stroke-opacity:1"
       d="m 639.35235,614.01596 c 10.44879,10.31085 20.57854,22.12583 29.62199,35.60223 30.52025,46.25519 36.80635,99.67092 27.11238,144.22952 -9.11616,41.48084 -30.51888,70.39778 -47.41824,87.30482 -17.0753,17.08306 -29.66789,23.36608 -29.66789,23.36608 0,0 7.89829,-11.77205 15.60851,-32.57201 7.80746,-21.06233 14.25521,-50.0886 10.88374,-82.09825 -3.47678,-33.91996 -17.71514,-67.92087 -39.7752,-94.58668 -6.5318,-8.11122 -14.28868,-16.00873 -22.59584,-24.17903 -2.93543,-2.88706 -5.94677,-5.81492 -9.04088,-8.82659 0,0 -10e-6,-10e-6 -10e-6,-10e-6 -11.90556,-11.44607 -25.27677,-23.81874 -38.40131,-37.66943 -13.76806,-14.38323 -26.61266,-30.3697 -37.2256,-48.18163 -11.44483,-18.98842 -18.85893,-39.70164 -21.5282,-60.39405 -3.23124,-26.78951 2.62517,-50.19412 11.03304,-67.50713 8.88671,-18.264 20.64048,-30.06716 28.73017,-36.75281 8.31014,-6.86785 13.6112,-9.46301 13.6112,-9.46301 0,0 -3.37876,4.90684 -7.51788,14.17087 -4.11826,9.21734 -8.74975,22.87157 -9.51657,39.15409 -0.73815,15.36554 2.04422,32.63945 9.88818,48.39173 5.89892,12.24385 14.94983,23.3686 26.03396,34.62016 10.62066,10.68653 22.9224,20.36698 36.59664,30.98777 13.36395,10.28792 27.90236,21.13346 42.35704,33.97402 0,0 10e-6,2e-5 10e-6,2e-5 3.78042,3.32303 7.52615,6.79335 11.21076,10.42932 z"
       id="path4315"
       inkscape:path-effect="#path-effect4317;#path-effect4319"
       inkscape:original-d="m 530.30021,402.28798 c -20.92462,31.28752 -25.01113,69.20773 -30.26034,107.71982 -14.09363,103.40066 103.12125,87.51435 137.30612,162.43213 39.12759,85.75003 -10.99468,155.07983 -18.3454,232.07868"
       inkscape:connector-curvature="0" />
    <path
       inkscape:connector-curvature="0"
       inkscape:original-d="M 384.30667,904.51861 C 368.45289,880.81323 365.35668,852.08255 361.37956,822.90339 350.70136,744.56065 439.5106,756.59712 465.41118,699.83476 495.05664,634.86523 457.08093,582.33668 451.51156,523.9976"
       inkscape:path-effect="#path-effect4328;#path-effect4330"
       id="path4326"
       d="m 417.51417,693.94842 c 6.03084,-5.92735 11.62777,-11.44354 16.26866,-16.9354 15.68702,-17.84573 27.44231,-41.22306 31.67049,-65.64954 4.0959,-23.14043 0.96605,-45.07467 -3.81936,-61.57183 -4.70356,-16.21503 -10.1224,-25.79405 -10.1224,-25.79405 0,0 10.10977,4.08967 24.18178,16.58811 13.90051,12.34612 31.93893,34.16256 40.35386,66.77841 8.94512,35.05429 5.13698,77.86808 -19.00767,115.29238 -7.15531,10.85976 -15.11957,20.28798 -23.29482,28.35861 -2.88289,2.84599 -5.80901,5.5402 -8.75687,8.09608 0,0 -1e-5,1e-5 -1e-5,1e-5 -11.25851,9.89518 -22.4194,17.93259 -32.57163,25.29306 -10.3624,7.59865 -19.59055,14.1539 -27.65167,21.39489 -8.3623,7.59075 -15.4022,14.85104 -20.2709,23.10738 -6.51237,10.59596 -9.64647,22.94403 -10.02691,34.34837 -0.41886,12.10401 2.25919,22.6587 4.88225,29.95654 2.62788,7.31124 4.9577,11.30717 4.9577,11.30717 0,0 -4.25047,-1.68327 -11.05102,-6.59931 -6.60656,-4.77581 -16.38276,-13.46012 -24.09586,-27.55525 -7.29369,-13.35859 -12.78954,-31.82382 -10.8943,-53.4638 1.63418,-16.70331 7.04701,-33.55523 15.76514,-48.88126 8.04325,-14.36009 17.83456,-27.23395 28.28063,-38.58875 9.91612,-10.92603 19.90323,-20.48498 28.6159,-28.98845 0,0 10e-6,-10e-6 10e-6,-10e-6 2.25414,-2.23723 4.4607,-4.40356 6.587,-6.49336 z"
       style="fill:#ff2a2a;fill-rule:evenodd;stroke:none;stroke-width:1px;stroke-linecap:butt;stroke-linejoin:miter;stroke-opacity:1" />
    <path
       inkscape:connector-curvature="0"
       inkscape:original-d="m 532.63878,514.65324 c -13.31716,19.91247 -15.91795,44.04621 -19.25873,68.55665 -8.96968,65.80778 65.62995,55.69718 87.3864,103.37747 24.90216,54.57431 -6.9974,98.69821 -11.67566,147.70296"
       inkscape:path-effect="#path-effect4334;#path-effect4336"
       id="path4332"
       d="m 612.2651,639.03058 c 7.03789,6.94992 13.91896,15.18428 20.1297,24.73504 20.95471,33.00689 23.52453,70.51688 14.95338,100.8169 -8.06526,28.18554 -24.41848,46.44142 -36.81996,56.51029 -12.57005,10.20574 -21.43743,13.19751 -21.43743,13.19751 0,0 4.17954,-8.4815 7.37805,-22.40344 3.26535,-14.21285 4.75206,-32.60067 0.28546,-51.30372 -4.60597,-19.68414 -15.11531,-37.73381 -27.6162,-51.17406 -3.69185,-4.17848 -8.21454,-8.50958 -13.10355,-13.31184 -1.72762,-1.69697 -3.51943,-3.47039 -5.35948,-5.3262 0,0 -10e-6,-1e-5 -10e-6,-1e-5 -7.11508,-7.03092 -15.4101,-15.18344 -23.72085,-24.64589 -8.78443,-9.83986 -17.04806,-21.15669 -23.806,-33.79002 -7.35434,-13.49412 -11.76562,-28.41414 -12.88223,-43.12212 -1.22724,-19.06483 4.08892,-35.05744 10.82492,-46.43874 7.12671,-12.01197 15.91224,-19.13156 21.77758,-22.95426 6.04548,-3.9401 9.7703,-5.16678 9.7703,-5.16678 0,0 -1.80566,3.54027 -3.67698,9.87465 -1.87158,6.33522 -3.57949,15.34419 -2.56398,25.35554 0.94157,9.41986 4.24849,19.30969 10.0963,27.32333 4.35669,6.26269 10.38392,11.58769 17.38799,17.34823 6.79271,5.52471 14.45939,10.50196 23.17704,16.59615 8.54569,5.89605 18.01685,12.52872 27.67658,20.9505 0,0 10e-6,10e-6 10e-6,10e-6 2.5314,2.17213 5.04751,4.4781 7.52936,6.92893 z"
       style="fill:#ff2a2a;fill-rule:evenodd;stroke:none;stroke-width:1px;stroke-linecap:butt;stroke-linejoin:miter;stroke-opacity:1" />
  </g>
</svg>
